<svg version="1.1" id="Layer_1" xmlns="http://www.w3.org/2000/svg" xmlns:xlink="http://www.w3.org/1999/xlink" x="0px" y="0px" viewBox="0 0 500 500" style="width: 151px;" xml:space="preserve" data-imageid="css-19" imageName="CSS" class="illustrations_image">
<style type="text/css">
	.st0_css-19{fill:#709FF9;}
	.st1_css-19{opacity:0.32;fill:url(#SVGID_1_);enable-background:new    ;}
	.st2_css-19{opacity:0.32;fill:url(#SVGID_00000154386942717460322860000000066114334001750916_);enable-background:new    ;}
	.st3_css-19{fill:#060638;}
	.st4_css-19{fill:#68E1FD;}
	.st5_css-19{fill:#00275E;}
	.st6_css-19{fill:#F7931E;}
	.st7_css-19{fill:#8CC63F;}
	.st8_css-19{fill:#FE6162;}
	.st9_css-19{opacity:0.5;fill:#060638;enable-background:new    ;}
	.st10_css-19{fill:#844040;}
	.st11_css-19{fill:#F8997C;}
	.st12_css-19{fill:#0048AA;}
</style>
<path id="Base_css-19" class="st0_css-19" d="M461.8,309.3c-47.5,25.5-187.1,106.1-231.1,131.5c-8.3,4.8-18.5,4.8-26.8-0.1L36.5,343&#10;&#9;c-6.7-3.9-4.5-11.2,2.2-15l233.6-135.7c2.4-1.4,5.4-1.4,7.9,0l181.8,103.4c3.7,2.1,5.1,6.9,2.9,10.6&#10;&#9;C464.1,307.6,463.1,308.6,461.8,309.3z"/>
<g id="Shadow_css-19">
	
		<linearGradient id="SVGID_1_-css-19" gradientUnits="userSpaceOnUse" x1="347.2424" y1="176.1162" x2="369.4524" y2="190.1263" gradientTransform="matrix(1 0 0 -1 0 502)">
		<stop offset="0" style="stop-color:#00275E;stop-opacity:0"/>
		<stop offset="0.99" style="stop-color:#0048AA"/>
	</linearGradient>
	<path class="st1_css-19" d="M351.8,326.2c0.8,0.4,10,5.9,10.9,6.2l43.1-25.5l-4.5-10.3l-21.4-6.2l-45.5,25.4&#10;&#9;&#9;C342.1,320.3,343.8,322.6,351.8,326.2z"/>
	
		<linearGradient id="SVGID_00000000917497300890150740000011372848761075764665_-css-19" gradientUnits="userSpaceOnUse" x1="194.9999" y1="88.466" x2="238.3399" y2="115.796" gradientTransform="matrix(1 0 0 -1 0 502)">
		<stop offset="0" style="stop-color:#00275E;stop-opacity:0"/>
		<stop offset="0.99" style="stop-color:#0048AA"/>
	</linearGradient>
	<path style="opacity:0.32;fill:url(#SVGID_00000000917497300890150740000011372848761075764665_);enable-background:new    ;" d="&#10;&#9;&#9;M204.4,414.1c1.6,0.7,19.9,11.8,21.8,12.5l86.2-51l-29.9-15.4l-42.8-5l-70.1,38.2C185,402.3,188.3,406.8,204.4,414.1z"/>
</g>
<g id="CSS_css-19">
	<polyline class="st3_css-19" points="399.2,132.4 408.5,126.6 413.6,135.1 400.9,135.1 &#9;"/>
	<path class="st3_css-19" d="M426.1,159.3c-1.4,0.7-3.1,0.3-4-1c-0.3-0.2-0.6-0.5-0.8-0.9c-0.8-1.4-0.3-3.2,1-4c1-0.7,2-1.3,3-1.9v-0.1&#10;&#9;&#9;l9.3-5.8l-13.1-10.5h-7.9l-2.5,5l-8.7,2.2v11.4l8.1,9l7,9.5l2.5,7.9l-9.7-5.9l-9.4-9.5c0,0-10.6,7.5-8.6,7.2s28.8,21.2,28.8,21.2&#10;&#9;&#9;l11.4-7.1l-5.6-27.3C426.7,159.1,426.4,159.2,426.1,159.3z"/>
	<polyline class="st3_css-19" points="382.4,169.1 393.5,162.2 384.9,160.2 &#9;"/>
	<path class="st3_css-19" d="M386.6,134c-1.3-0.7-2.4-1.8-3.2-3.2c-0.8-1.4-0.3-3.2,1-4c0.9-0.6,0.6,0.3,1.5,0.8l10-6l-17.1-15.7l-8.9-3.6&#10;&#9;&#9;l-11.3,6.9l6.5,8.3l-0.2,12.6l6.7,8.9l5.5,8.8l3.2,9.1l-8.5-7l-9.7-9.4l-9.4,5.8l17.2,14.5l8,4.3l11.4-10.3l0.8-10.5l-2-9.9&#10;&#9;&#9;C387.6,134.4,387.1,134.3,386.6,134z"/>
	<polyline class="st3_css-19" points="314.3,83 323.6,77.2 350.4,93.2 359.7,102.3 350.4,108.1 344,97.1 323.4,89.9 320.8,101 324,115.7 &#10;&#9;&#9;330,127.4 339.2,130.9 350.4,129.1 357.9,137.2 349.4,142.4 334.3,138.6 323.6,131.9 317.7,123.7 314.3,113.4 311.7,102.8 &#9;"/>
	<path class="st3_css-19" d="M341.4,80c2.4,1.5,4.7,3.3,6.7,5.3c1.9,1.8,3.6,3.8,5.2,5.9c1.3,1.9,2.5,3.7,3.5,5.4c0.8,1.3,1.5,2.6,2.2,4&#10;&#9;&#9;l0.7,1.6l-6.4,3.4c-0.1-0.3-0.3-0.7-0.5-1.2s-0.7-1.4-1.4-2.8c-0.7-1.3-1.5-2.6-2.4-3.8c-1.1-1.4-2.2-2.8-3.5-4&#10;&#9;&#9;c-1.4-1.4-2.9-2.6-4.5-3.7c-4.2-2.7-7.8-3.2-10.8-1.6c-3,1.6-4.5,4.8-4.7,9.8c-0.1,5.3,1.2,10.5,3.8,15.1c2.4,4.7,6,8.7,10.4,11.6&#10;&#9;&#9;c1.5,0.9,3.1,1.7,4.8,2.2c1.2,0.4,2.5,0.5,3.8,0.4c0.9-0.1,1.8-0.3,2.7-0.6c0.6-0.2,1.2-0.5,1.7-0.9l0.5-0.5l5.6,10.8&#10;&#9;&#9;c-0.2,0.3-0.5,0.5-0.8,0.7c-0.8,0.4-1.6,0.8-2.4,1.1c-1.3,0.5-2.6,0.7-4,0.8c-1.8,0-3.7-0.3-5.4-0.8c-2.4-0.7-4.7-1.7-6.9-3.1&#10;&#9;&#9;c-6.9-4.3-12.6-10.6-17.1-19c-4.5-8.4-6.7-16.4-6.4-24c0.3-7.6,2.9-12.6,7.8-15.1S334.5,75.7,341.4,80z"/>
	<path class="st3_css-19" d="M381.4,105c1.9,1.2,3.7,2.6,5.3,4.1c1.5,1.4,2.9,2.8,4.2,4.4c1.1,1.3,2,2.6,2.8,3.9c0.6,0.9,1.2,1.9,1.7,2.9&#10;&#9;&#9;l0.5,1.1l-6.1,3.5c-0.2-0.5-0.6-1.1-1-1.9c-0.8-1.3-1.7-2.6-2.8-3.8c-1.2-1.6-2.7-3-4.4-4.1c-1.9-1.2-3.4-1.5-4.5-1.1&#10;&#9;&#9;c-1.2,0.4-1.8,1.4-1.8,3c0,2.1,0.8,4.1,2.1,5.7c1.6,2.2,3.5,4.3,5.5,6.2c2.1,2.1,4.3,4.3,6.5,6.7c2.2,2.5,4.1,5.3,5.4,8.4&#10;&#9;&#9;c1.4,3.1,2.1,6.6,2,10.1c-0.2,4.9-1.9,8-5,9.2s-7.4,0.1-12.8-3.2c-2.2-1.4-4.2-2.9-6.1-4.7c-1.7-1.6-3.3-3.3-4.8-5.2&#10;&#9;&#9;c-1.2-1.6-2.3-3.2-3.3-4.6c-0.7-1.1-1.4-2.3-2-3.5l-0.7-1.4l6.1-3.2c0.3,0.6,0.7,1.3,1.2,2.3c1,1.7,2.2,3.3,3.5,4.8&#10;&#9;&#9;c1.6,2,3.6,3.8,5.7,5.2c2.3,1.5,4.2,2,5.5,1.5c1.4-0.4,2.1-1.7,2.1-3.6c0-2.1-0.8-4.1-2.1-5.7c-1.6-2.2-3.5-4.3-5.5-6.2&#10;&#9;&#9;c-2.2-2.1-4.3-4.3-6.5-6.7c-2.2-2.5-4-5.3-5.4-8.4c-1.4-3.1-2.1-6.6-2-10.1c0.2-4.3,1.8-7,4.8-8.2&#10;&#9;&#9;C372.8,101.2,376.7,102.1,381.4,105z"/>
	<path class="st3_css-19" d="M420.1,129.2c1.9,1.2,3.7,2.6,5.3,4.1c1.5,1.4,2.9,2.8,4.2,4.4c1.1,1.4,2,2.7,2.8,3.9c0.6,0.9,1.2,1.9,1.7,2.9&#10;&#9;&#9;l0.5,1.1l-6.1,3.6c-0.2-0.5-0.6-1.1-1-1.9c-0.8-1.3-1.8-2.6-2.8-3.8c-1.2-1.6-2.7-3-4.4-4.1c-1.9-1.1-3.4-1.5-4.5-1.1&#10;&#9;&#9;s-1.8,1.4-1.8,3c0,2.1,0.8,4.1,2.1,5.7c1.6,2.2,3.5,4.3,5.5,6.2c2.2,2.1,4.3,4.3,6.5,6.7c2.2,2.5,4.1,5.3,5.4,8.4&#10;&#9;&#9;c1.4,3.2,2.1,6.6,2,10.1c-0.2,4.9-1.9,8-5,9.2s-7.4,0.1-12.7-3.2c-2.2-1.4-4.2-3-6.1-4.7c-1.7-1.6-3.3-3.3-4.8-5.2&#10;&#9;&#9;c-1.2-1.6-2.3-3.2-3.3-4.6c-0.7-1.1-1.4-2.3-2-3.5l-0.7-1.4l6.1-3.1c0.3,0.6,0.7,1.3,1.2,2.3c1,1.7,2.2,3.3,3.5,4.8&#10;&#9;&#9;c1.6,2,3.6,3.8,5.7,5.2c2.3,1.4,4.2,1.9,5.5,1.5c1.4-0.5,2.1-1.7,2.2-3.6c-0.1-2.1-0.8-4.1-2.1-5.7c-1.6-2.2-3.5-4.3-5.5-6.2&#10;&#9;&#9;c-2.2-2.1-4.3-4.3-6.5-6.7c-2.2-2.5-4.1-5.3-5.4-8.4c-1.4-3.1-2.1-6.6-2-10c0.2-4.3,1.8-7,4.8-8.2S415.4,126.3,420.1,129.2z"/>
	<path class="st4_css-19 targetColor" d="M332,85.8c2.4,1.5,4.7,3.3,6.7,5.3c1.9,1.8,3.7,3.8,5.2,5.9c1.3,1.9,2.5,3.7,3.5,5.4c0.8,1.3,1.5,2.6,2.2,4&#10;&#9;&#9;l0.7,1.6l-6.4,3.4c-0.1-0.3-0.3-0.7-0.5-1.2s-0.7-1.4-1.4-2.8c-0.7-1.3-1.5-2.6-2.4-3.8c-1.1-1.4-2.2-2.8-3.5-4&#10;&#9;&#9;c-1.3-1.4-2.9-2.7-4.5-3.7c-4.2-2.7-7.8-3.2-10.8-1.6c-3,1.6-4.5,4.8-4.7,9.8c-0.1,5.3,1.2,10.5,3.8,15.1c2.4,4.7,6,8.7,10.4,11.6&#10;&#9;&#9;c1.5,0.9,3.1,1.7,4.7,2.1c1.2,0.4,2.5,0.5,3.8,0.4c0.9-0.1,1.8-0.3,2.7-0.6c0.6-0.2,1.2-0.5,1.7-0.9l0.5-0.5l5.6,10.9&#10;&#9;&#9;c-0.2,0.3-0.5,0.5-0.8,0.7c-0.8,0.4-1.6,0.8-2.4,1.1c-1.3,0.5-2.6,0.7-3.9,0.8c-1.8,0-3.7-0.3-5.4-0.8c-2.4-0.7-4.7-1.7-6.9-3.1&#10;&#9;&#9;c-6.9-4.3-12.6-10.6-17.1-19s-6.7-16.4-6.4-24c0.3-7.6,2.9-12.6,7.8-15.1S325.1,81.5,332,85.8z" style="fill: rgb(104, 225, 253);"/>
	<path class="st4_css-19 targetColor" d="M372.1,110.8c1.9,1.2,3.7,2.6,5.3,4.1c1.5,1.4,2.9,2.9,4.2,4.4c1.1,1.4,2,2.7,2.8,3.9c0.6,1,1.2,2,1.7,3&#10;&#9;&#9;l0.5,1.1l-6.1,3.6c-0.2-0.5-0.6-1.1-1-1.9c-0.8-1.3-1.8-2.6-2.8-3.8c-1.2-1.6-2.7-3-4.4-4.1c-1.9-1.2-3.4-1.5-4.5-1.1&#10;&#9;&#9;s-1.8,1.4-1.8,3c0,2.1,0.8,4.1,2.1,5.7c1.6,2.2,3.5,4.3,5.5,6.2c2.1,2.1,4.3,4.3,6.5,6.7c2.2,2.5,4.1,5.3,5.4,8.4&#10;&#9;&#9;c1.4,3.1,2.1,6.6,2,10c-0.2,4.9-1.9,8-5,9.2s-7.4,0.1-12.7-3.2c-2.2-1.4-4.2-2.9-6.1-4.7c-1.7-1.6-3.3-3.3-4.8-5.2&#10;&#9;&#9;c-1.2-1.6-2.3-3.2-3.3-4.6c-0.7-1.1-1.4-2.3-2-3.5l-0.7-1.4l6.1-3.1c0.3,0.6,0.7,1.3,1.2,2.3c1,1.7,2.2,3.3,3.5,4.8&#10;&#9;&#9;c1.6,2,3.6,3.8,5.7,5.2c2.3,1.5,4.2,1.9,5.5,1.5s2.1-1.7,2.1-3.6c0-2.1-0.8-4.1-2.1-5.7c-1.6-2.2-3.5-4.3-5.5-6.2&#10;&#9;&#9;c-2.2-2.1-4.3-4.3-6.5-6.7c-2.2-2.5-4-5.3-5.4-8.3c-1.4-3.1-2.1-6.6-2-10.1c0.2-4.3,1.8-7,4.8-8.2&#10;&#9;&#9;C363.5,107,367.4,107.9,372.1,110.8z" style="fill: rgb(104, 225, 253);"/>
	<path class="st4_css-19 targetColor" d="M410.8,135c1.9,1.2,3.7,2.6,5.3,4.1c1.5,1.4,2.9,2.8,4.2,4.4c1.1,1.4,2,2.7,2.8,3.9c0.6,0.9,1.2,1.9,1.7,2.9&#10;&#9;&#9;l0.5,1.1l-6.1,3.5c-0.2-0.5-0.6-1.1-1-1.9c-0.8-1.3-1.8-2.6-2.8-3.8c-1.2-1.6-2.7-3-4.4-4.1c-1.9-1.1-3.4-1.5-4.5-1.1&#10;&#9;&#9;s-1.8,1.4-1.8,3c0,2.1,0.8,4.1,2.1,5.7c1.6,2.2,3.5,4.3,5.5,6.2c2.2,2.1,4.3,4.3,6.5,6.7c2.2,2.5,4.1,5.3,5.4,8.4&#10;&#9;&#9;c1.4,3.2,2.1,6.6,2,10.1c-0.2,4.9-1.9,8-5,9.2s-7.4,0.1-12.7-3.2c-2.2-1.4-4.2-3-6.1-4.7c-1.7-1.6-3.3-3.3-4.8-5.2&#10;&#9;&#9;c-1.2-1.6-2.3-3.2-3.3-4.6c-0.7-1.1-1.4-2.3-2-3.5l-0.7-1.4l6.1-3.2c0.3,0.6,0.7,1.3,1.2,2.3c1,1.7,2.2,3.3,3.5,4.8&#10;&#9;&#9;c1.6,2,3.6,3.8,5.7,5.2c2.3,1.5,4.2,2,5.5,1.5c1.4-0.5,2.1-1.7,2.2-3.6c-0.1-2.1-0.8-4.1-2.1-5.7c-1.6-2.2-3.5-4.3-5.5-6.2&#10;&#9;&#9;c-2.2-2.1-4.3-4.3-6.5-6.7c-2.2-2.5-4.1-5.3-5.4-8.4c-1.4-3.1-2.1-6.6-2-10c0.2-4.3,1.8-7,4.8-8.2S406.1,132.1,410.8,135z" style="fill: rgb(104, 225, 253);"/>
</g>
<g id="Monitor_css-19">
	<path class="st5_css-19" d="M74.8,160.7c-2.1,1.2-3.3,3.4-3.3,5.8v164c-0.2,3.4,3.6,6.4,6.6,4.7l67.2-38.2c2.7-1.5,125.7-70.7,125.7-73.8&#10;&#9;&#9;l6.7-171.9c0.1-1.8-1.3-3.3-3.1-3.4c-0.6,0-1.2,0.1-1.7,0.4C242.8,65.3,88.4,152.8,74.8,160.7z"/>
	<path class="st4_css-19 targetColor" d="M108.3,146.2l-30.7,18c-0.6,0.3-1,1-1,1.7v163.9c0,0.7,0.6,1.3,1.3,1.3c0.2,0,0.5-0.1,0.7-0.2l192.5-112&#10;&#9;&#9;c0,0,0.1,4.7-3.6,7S78.1,335.2,78.1,335.2s-5.1,2.3-6.6-3.8V166.5c0-2.2,1-4.2,2.8-5.5c3-2.2,194.1-113.5,194.1-113.5&#10;&#9;&#9;s7-2.5,9.3,1.6l-149.8,85.7" style="fill: rgb(104, 225, 253);"/>
	<polygon class="st6_css-19" points="215.5,121.7 215.5,126.4 254.6,103.7 254.6,99.1 &#9;"/>
	<polygon class="st4_css-19 targetColor" points="211.6,124 101.3,187.8 101.3,192.8 211.6,128.7 &#9;" style="fill: rgb(104, 225, 253);"/>
	<polygon class="st7_css-19" points="118.6,193 101.3,203 101.3,208 118.6,198 &#9;"/>
	<polygon class="st6_css-19" points="122.4,190.8 122.4,195.7 184.2,159.8 184.2,155 &#9;"/>
	<polygon class="st8_css-19" points="188.1,152.8 188.1,157.6 228.5,134.1 228.5,129.4 &#9;"/>
	<polygon class="st7_css-19" points="232.4,127.2 232.4,131.8 254.6,118.9 254.6,114.3 &#9;"/>
	<polygon class="st4_css-19 targetColor" points="212.8,153.6 102.5,217.4 102.5,222.4 212.8,158.3 &#9;" style="fill: rgb(104, 225, 253);"/>
	<polygon class="st6_css-19" points="221.7,177.1 221.7,181.8 260.9,159 260.9,154.5 &#9;"/>
	<polygon class="st4_css-19 targetColor" points="217.9,179.3 107.6,243.1 107.6,248.1 217.9,184 &#9;" style="fill: rgb(104, 225, 253);"/>
	<polygon class="st7_css-19" points="124.8,248.4 107.6,258.3 107.6,263.4 124.8,253.3 &#9;"/>
	<polygon class="st6_css-19" points="128.7,246.1 128.7,251.1 190.5,215.2 190.5,210.4 &#9;"/>
	<polygon class="st8_css-19" points="194.4,208.2 194.4,212.9 234.8,189.4 234.8,184.8 &#9;"/>
	<polygon class="st7_css-19" points="238.6,182.6 238.6,187.2 260.9,174.3 260.9,169.7 &#9;"/>
	<polygon class="st4_css-19 targetColor" points="219.1,209 108.8,272.7 108.8,277.8 219.1,213.6 &#9;" style="fill: rgb(104, 225, 253);"/>
</g>
<g id="Plant_css-19">
	<path class="st4_css-19 targetColor" d="M401.2,271.1c-1-2.2-5.5-3.9-11-3.9s-10.2,1.7-11,4c-6.4,8.9-12.6,23.5-4.8,33.2c3.7,4.6,9.6,6.9,15.4,7h1&#10;&#9;&#9;c5.8-0.1,11.7-2.3,15.4-7C414.1,294.7,407.7,280,401.2,271.1z" style="fill: rgb(104, 225, 253);"/>
	<ellipse class="st9_css-19" cx="390.3" cy="272.1" rx="11.2" ry="4.8"/>
	<path class="st10_css-19" d="M403.3,231.4c-6.9,11.7-11.1,24.8-12.4,38.3c0-16.4-1.5-32.7-4.5-48.8c-0.1-0.6-1-0.3-0.9,0.2&#10;&#9;&#9;c3.4,18,4.8,36.3,4.5,54.6c0,0.2,0.2,0.4,0.4,0.4c0.1,0,0.1,0,0.2,0c0,0.1,0,0.3,0,0.4c0,0.6,0.9,0.6,0.9,0&#10;&#9;&#9;c0.3-15.8,4.7-31.2,12.7-44.7c0.1-0.2,0-0.5-0.2-0.6C403.8,231.1,403.5,231.2,403.3,231.4z"/>
	<path class="st7_css-19" d="M396.3,246.3c0,0,6.9-22.3,21.7-30.5c0,0-3,4.4-1.6,8s3.6,10-3.4,13.6s-11,0-10.4,7s3.4,10.4-1.1,13.9&#10;&#9;&#9;s-8.4,6.4-9.8,13.7C391.6,272.1,393.3,253.7,396.3,246.3z"/>
	<path class="st7_css-19" d="M389.7,243.9c0,0-2.9-34.2-8.9-42.9c0.5,3.3-0.1,6.7-1.7,9.6c-2.6,4.9-5.4,6.7-3.9,13.1s7.6,5.2,7,11.6&#10;&#9;&#9;s-5.7,5.2-3.1,13.4c2.5,8.1,11.2,13.5,11.2,13.5"/>
</g>
<g id="Character_css-19">
	<path class="st3_css-19" d="M256.1,339.4c0,0,0.2,4.2-1.1,5.4s-8.4-2.1-10.3-0.9s7.1,9.7,10.3,10.1c3.2,0.5,6.1-4,6.1-4v6.4l3.6,2l2.6-1.6&#10;&#9;&#9;l-0.8-17.5H256.1z"/>
	<path class="st11_css-19" d="M260.9,318c4.3-3,9.4-4.7,14.9-3.5c5.9,1.3,11,5,16.9,5.9c0.9,0.1,4.7-0.1,5.3,0.5&#10;&#9;&#9;c16.6,15.8-29.9,14.1-29.9,14.1c-4.5-3.7-8.8-7.3-13.2-11.1C256.3,320.8,258.6,319.6,260.9,318z"/>
	<path class="st10_css-19" d="M282.8,340.8l1.6,47.5c0.1,1.8-2.7,1.8-2.8,0l-1.7-47.5C280,339,282.8,339,282.8,340.8z"/>
	<path class="st10_css-19" d="M247.9,366.2c8.5-8.3,16.6-17,24.3-26c1.2-1.4,3.1,0.6,2,2c-7.7,9-15.8,17.7-24.3,26&#10;&#9;&#9;C248.6,369.5,246.6,367.5,247.9,366.2z"/>
	<path class="st10_css-19" d="M292.5,336.4c6.6,12.4,12.8,25,18.6,37.8c0.7,1.6-1.7,3-2.4,1.4c-5.8-12.8-12-25.4-18.6-37.8&#10;&#9;&#9;C289.3,336.2,291.7,334.8,292.5,336.4z"/>
	<path class="st4_css-19 targetColor" d="M255.8,322.4c2.8,3.8,6.7,6.7,11.2,8.1c6.4,1.9,15.6,1,19-5.5c6.1-11.9,0.4-26.8,6.8-38.4c1.5-3,4.2-5.1,7.5-6&#10;&#9;&#9;c4.2-0.9,7,2.2,8.5,5.8c2.7,6.5,2.6,14.6,2.5,21.5c0,5.6-0.4,11.2-1.2,16.7c0,0-3.9,23.2-34.2,17c-5.2-0.9-10.3-2.8-14.9-5.4&#10;&#9;&#9;c-2.4-1.3-4.4-3.1-6.1-5.3C252.9,328.2,254.1,325.1,255.8,322.4z" style="fill: rgb(104, 225, 253);"/>
	<path class="st12_css-19" d="M277.8,319.9c-1.2-8.3-1.8-16.7-1.7-25.2c0-0.5,0.1-1,0.4-1.4c0-0.8,0-1.7,0-2.5c-5.5-0.2-14.5,0.5-20.9,4.9&#10;&#9;&#9;c-8.4,5.8-4.5,41.8-1.1,47.7c4.7,2,8.7,2.1,12.5-1.1l3.8-21.6c2.3,1.2,4.8,2.2,7.3,2.9C278,322.4,277.9,321.1,277.8,319.9z"/>
	<path class="st3_css-19" d="M234.8,344.7c0,0,0.2,4.2-1.1,5.4s-8.4-2.1-10.3-0.9s7.1,9.7,10.3,10.1s6.1-4,6.1-4v6.4l3.6,2l2.6-1.6&#10;&#9;&#9;l-0.8-17.5H234.8z"/>
	<path class="st12_css-19" d="M246.9,347.8c-3.8,3.2-7.8,3.1-12.5,1.1c-3.4-5.9-7.4-41.9,1.1-47.7c9-6.2,23.2-5.1,25.5-4.4l34.6,5.7&#10;&#9;&#9;c2.6,4.5-4.4,28.2-19.8,28.9s-25.2-5.1-25.2-5.1L246.9,347.8z"/>
	<path class="st11_css-19" d="M260.3,248.9c1.6,0.7,3,2,3.9,3.6l0.1,0.1c2.4,2,2.8,5.6,5.4,7.4c0,0.1,2.4,1.8,2.5,1.9s-0.2-3.3-0.2-3.3l0,0&#10;&#9;&#9;c0.8,2.3,1.7,4.6,2.4,7c-0.1,0.1-0.2,0.1-0.4,0.2l0.3,0.1l0.2,0.1c0.1,0.2,0.2,0.4,0.5,0.5c0.3,1-0.3,2-1.3,2.3&#10;&#9;&#9;c-0.4,0.1-0.9,0.1-1.3-0.1l-7.8-3.8c-1-0.2-2.1-0.5-3.1-0.9c-0.1-0.8-0.1-1.6-0.2-2.5c-1.3-1.9-1.4-4.4-0.5-6.5&#10;&#9;&#9;c0-0.1-0.1-0.1-0.1-0.1v-0.1c-1.3-0.9-2.2-2.3-2.5-3.9C258,249.7,259.1,248.3,260.3,248.9z"/>
	<path class="st4_css-19 targetColor" d="M270.3,256.3c0,0-8.9,5.5-9.9,10.1c0,0,6.3,13.6,5.9,14.2c-7.1,9.2,14.1-5.9,14.1-5.9S276.1,261.8,270.3,256.3&#10;&#9;&#9;z" style="fill: rgb(104, 225, 253);"/>
	<path class="st4_css-19 targetColor" d="M250,259.7c-0.7,6.2,7.1,14.8,10.5,16.4c4.5,2.3,6.3-16.6,26.3-16.5c1.3,0,7.8-2.8,11.2,5.8s0,32.9-2.3,37.2&#10;&#9;&#9;c-2,3.8-15.3,12.8-34.3,3.1l-0.3-8.8c0,0-11.2-0.2-17.2-8.5c-5.5-7.7-8.8-19.2-8.3-24.9C240,261.4,245.6,258.2,250,259.7z" style="fill: rgb(104, 225, 253);"/>
	<path class="st8_css-19" d="M270.3,256.3c0,0-8.9,5.5-9.9,10.1c0,0,6.3,13.6,5.9,14.2c-7.1,9.2,14.1-5.9,14.1-5.9S276.1,261.8,270.3,256.3&#10;&#9;&#9;z"/>
	<polyline class="st12_css-19" points="258.3,232.9 234.6,238.1 238.6,271.4 261.4,264 &#9;"/>
	<path class="st11_css-19" d="M235.8,258.3c0.1,0.1,0.1,0.1,0.2,0.2c-0.1,1.9-0.1,3.7-0.1,5.6c0,0.9,1.4,0.8,1.5-0.1v-0.2&#10;&#9;&#9;c0.4,0.1,0.9-0.1,1-0.5V263c0.2,0.1,0.5,0.1,0.7-0.1c0.2-0.3,0.6-0.4,1-0.2c0.1,0.1,0.1,0.1,0.2,0.2v0.7c0,0.8,1.4,0.9,1.4,0.1&#10;&#9;&#9;l0.1-0.6c0.2,0.6,1.4,0.6,1.4-0.1l0.1-0.8c0.1,0,0.2-0.1,0.2-0.1v0.1c0.1,0.4,0.4,0.7,0.8,0.6c0.3,0,0.5-0.3,0.6-0.6l0.1-0.4&#10;&#9;&#9;c0.3,0.2,0.7,0.1,1-0.2c0,0,0-0.1,0-0.1c1-1.9,1.8-4,2.3-6.1c0.5-1.5,0-3.2-1.3-4.1c-0.1-0.1-0.3-0.2-0.5-0.2l0,0&#10;&#9;&#9;c0.1-1,0.2-2,0.3-3c0.2-0.7,0.3-1.4,0.3-2.1c0.2-0.5,0.1-1.1-0.1-1.6c-0.2-0.7-0.6-1.4-1.4-1.2c-1.3,0.2-1.8,2.2-2.1,3.2&#10;&#9;&#9;c-0.3,1.1-0.6,2.1-0.8,3.2c-0.2-0.2-0.4-0.3-0.6-0.4c-0.8-0.3-1.6,0-2.2,0.6l-0.1,0.1c-0.2-0.2-0.4-0.3-0.6-0.4&#10;&#9;&#9;c-0.7-0.4-1.5-0.4-2.1,0.1c-0.4,0.3-0.7,0.7-0.8,1.2c-1-0.4-2.1,0.1-2.4,1.1c0,0.1-0.1,0.2-0.1,0.3&#10;&#9;&#9;C233.1,254.3,234.4,256.8,235.8,258.3z M241.8,250.9h-0.4c0-0.1-0.1-0.1-0.1-0.2c0.1,0,0.3,0,0.4,0.1L241.8,250.9z"/>
	<path class="st11_css-19" d="M276.1,237.1c0,0.2-1.2,12.7,1.6,15.4s10.2,1.6,12.1-1.4s4.1-7,2.1-11.6S276.5,234,276.1,237.1z"/>
	<path class="st8_css-19" d="M250,259.7c-0.7,6.2,7.1,14.8,10.5,16.4c4.5,2.3,6.3-16.6,26.3-16.5c1.3,0,7.8-2.8,11.2,5.8s0,32.9-2.3,37.2&#10;&#9;&#9;c-2,3.8-15.3,12.8-34.3,3.1l-0.3-8.8c0,0-11.2-0.2-17.2-8.5c-5.5-7.7-8.8-19.2-8.3-24.9C240,261.4,245.6,258.2,250,259.7z"/>
	<path class="st5_css-19" d="M251.5,294.6c10.7,3.8,22.6-0.1,28.8-9.6c0.4-0.6,1.4,0,1,0.6c-6.5,9.9-18.9,14.1-30.1,10.1&#10;&#9;&#9;C250.6,295.5,250.9,294.4,251.5,294.6z"/>
	<path class="st5_css-19" d="M262.8,274c1-2.4,2.5-4.5,4.4-6.2c2.2-2,4.9-3.2,7.1-5.1c0.5-0.4,1.1,0.3,0.6,0.7c-2.1,1.8-4.7,3-6.8,4.8&#10;&#9;&#9;c-2,1.8-3.6,3.9-4.6,6.4C263.3,275,262.5,274.5,262.8,274z"/>
	<path class="st10_css-19" d="M275.9,238.8l4,2.1c0,0-3.1,11.7-4,14.8s2.8,7.4,14.8,7.7s11.4-17.9,8.6-24.6s-11.1-9.8-17.9-8&#10;&#9;&#9;C277.7,231.5,275.2,235.1,275.9,238.8z"/>
	<path class="st4_css-19 targetColor" d="M254.4,325.1c0.4-1,1.5-1.5,2.5-1.1c0.3,0.1,0.5,0.3,0.7,0.5c2.6,2.8,5.8,4.9,9.4,6c6.4,1.9,15.6,1,19-5.5&#10;&#9;&#9;c6.1-11.9,0.4-26.7,6.7-38.3c1.1-2.1,2.7-3.8,4.7-5c5.7-3.3,9.5,0.3,11.3,4.7c2.7,6.5,2.6,14.6,2.5,21.5c0,5.6-0.4,11.2-1.3,16.7&#10;&#9;&#9;c0,0-3.9,23.2-34.2,17c-5.2-0.9-10.3-2.8-14.9-5.4c-2.4-1.3-4.4-3.1-6.1-5.3C253.7,329.2,253.5,327,254.4,325.1z" style="fill: rgb(104, 225, 253);"/>
</g>
</svg>