<svg version="1.1" id="Layer_1" xmlns="http://www.w3.org/2000/svg" xmlns:xlink="http://www.w3.org/1999/xlink" x="0px" y="0px" viewBox="0 0 500 500" style="width: 151px;" xml:space="preserve" data-imageid="coding-4-21" imageName="Codificación 4" class="illustrations_image">
<style type="text/css">
	.st0_coding-4-21{fill:#093F68;}
	.st1_coding-4-21{fill:#68E1FD;}
	.st2_coding-4-21{fill:#FFC9B0;}
	.st3_coding-4-21{fill:#725858;}
	.st4_coding-4-21{fill:#FFFFFF;}
	.st5_coding-4-21{fill:#FFBC0E;}
	.st6_coding-4-21{fill:#DFEAEF;}
	.st7_coding-4-21{fill:#70CC40;}
	.st8_coding-4-21{fill:#F56132;}
</style>
<g id="character_coding-4-21">
	<path class="st0_coding-4-21" d="M199.9,377.3H57.5L42.3,270.1c-1.5-10.7,5.9-20.5,16.6-22c0.9-0.1,1.8-0.2,2.7-0.2h119.9L199.9,377.3z"/>
	<path class="st0_coding-4-21" d="M199.9,379.1H57.5c-0.9,0-1.7-0.7-1.8-1.6L40.5,270.4c-1.7-11.6,6.4-22.4,18.1-24.1c1-0.1,2-0.2,3-0.2h119.9&#10;&#9;&#9;c0.9,0,1.7,0.7,1.8,1.6l18.4,129.4c0.1,0.5-0.1,1-0.4,1.4C201,378.9,200.5,379.1,199.9,379.1z M59.1,375.5h138.7L180,249.7H61.6&#10;&#9;&#9;c-9.8,0-17.7,7.9-17.7,17.7c0,0.8,0.1,1.7,0.2,2.5L59.1,375.5z"/>
	<path class="st1_coding-4-21 targetColor" d="M125.5,264.6h33c15.7,0,32.9-2.9,44.1,10.9c5,6.2,6.3,14.9,9.4,22.1c4.8,11.3,12.7,30.2,25.9,33.9&#10;&#9;&#9;c26.3,7.3,52.4,3.4,52.6,3.4c8.9-1.4,17.3,4.6,18.7,13.5c1.4,8.9-4.6,17.3-13.5,18.7l0,0c-7.5,1-15.1,1.5-22.6,1.5&#10;&#9;&#9;c-14.8,0.1-29.5-1.8-43.8-5.6c-10.6-2.9-23-11.8-31.6-22.4l2.5,39.5H64.2v-79.9C64.2,280.5,105.9,264.6,125.5,264.6z" style="fill: rgb(104, 225, 253);"/>
	<path class="st0_coding-4-21" d="M200.1,381.9H64.2c-1,0-1.8-0.8-1.8-1.8v-79.9c0-21.6,44.3-37.4,63.2-37.4h33c2.3,0,4.6-0.1,7-0.1&#10;&#9;&#9;c14-0.4,28.5-0.8,38.6,11.7c3.6,4.4,5.3,9.9,7,15.2c0.8,2.6,1.6,5,2.6,7.3l0.1,0.2c4.6,10.9,12.3,29.2,24.6,32.7&#10;&#9;&#9;c25.6,7.1,50.8,3.5,51.9,3.3c9.9-1.6,19.2,5.1,20.8,15c1.6,9.9-5.1,19.2-15,20.8c-7.6,1.1-15.3,1.6-23,1.5&#10;&#9;&#9;c-14.9,0.1-29.8-1.8-44.3-5.7c-9.5-2.6-20.5-9.9-29-19l2.2,34.3c0,0.5-0.1,1-0.5,1.4C201.1,381.7,200.6,381.9,200.1,381.9z&#10;&#9;&#9; M66,378.3h132.2l-2.4-37.6c-0.1-1,0.7-1.9,1.7-1.9c0.6,0,1.2,0.2,1.5,0.7c8.4,10.4,20.5,19,30.7,21.8c14.1,3.8,28.7,5.7,43.3,5.5&#10;&#9;&#9;c7.5,0.1,15-0.4,22.4-1.5c7.9-1.3,13.3-8.7,12-16.6s-8.7-13.3-16.6-12c-1.1,0.2-27,3.9-53.4-3.4c-14-3.9-22.1-23.2-27-34.8&#10;&#9;&#9;l-0.1-0.2c-1-2.5-1.9-5.1-2.7-7.6c-1.6-5-3.3-10.2-6.4-14.1c-8.9-11.1-21.9-10.8-35.6-10.4c-2.4,0.1-4.7,0.1-7,0.1h-33&#10;&#9;&#9;c-9.9,0-25.2,4.2-37.2,10.2C74.1,283.7,66,292.3,66,300.2V378.3z"/>
	<path class="st0_coding-4-21" d="M106,377.7c-0.9,0-1.7-0.7-1.8-1.6l-7.8-73.4c-0.1-1,0.6-1.9,1.6-2c1-0.1,1.9,0.6,2,1.6l7.8,73.4&#10;&#9;&#9;c0.1,1-0.6,1.9-1.6,2c0,0,0,0,0,0H106z"/>
	<path class="st0_coding-4-21" d="M156.2,289.4c0,0-3.6,54.3-8.2,66.3l-13.1-66.3H156.2z"/>
	<path class="st0_coding-4-21" d="M148,357.6h-0.1c-0.8-0.1-1.5-0.7-1.6-1.5l-13.1-66.3c-0.1-0.5,0-1.1,0.4-1.5c0.3-0.4,0.9-0.7,1.4-0.7h21.4&#10;&#9;&#9;c0.5,0,1,0.2,1.3,0.6c0.3,0.4,0.5,0.9,0.5,1.4c-0.1,2.2-3.7,54.7-8.4,66.9C149.4,357.1,148.8,357.6,148,357.6z M137.1,291.2&#10;&#9;&#9;l11.1,56.3c3.1-16.4,5.5-48.1,6.1-56.3H137.1z"/>
	<path class="st2_coding-4-21" d="M114.4,380c0,0,7.2-31.4,15.2-37.9c5.1-4.1,9.6-5.2,15.7-6.6c2.6-0.6,5-2.2,7.7-2.7c3.1-0.6,6.3-0.5,9.5,0.1&#10;&#9;&#9;c5.8,1.2,11.2,4.2,15.9,7.8c3.4,2.5,6.3,5.6,8.6,9.1c1.4,2.4,2.2,5.7,0.2,7.6s-5.4,1-7.4-0.9c-0.7-0.6-1.4-1.5-2.4-1.5&#10;&#9;&#9;c-0.5,0-1,0.2-1.4,0.4c-6.4,3.1-9.7,8.9-13.1,14.7c-0.6,1-5.7,11.8-6.7,11.8L114.4,380z"/>
	<path class="st0_coding-4-21" d="M156.3,383.8h-0.2l-41.8-2c-1-0.1-1.8-0.9-1.7-1.9c0-0.1,0-0.2,0-0.3c0.3-1.3,7.4-32.1,15.8-38.9&#10;&#9;&#9;c5.3-4.2,9.9-5.5,16.4-7c1.1-0.3,2.2-0.7,3.3-1.2c1.4-0.7,2.9-1.2,4.5-1.5c3.4-0.6,6.8-0.6,10.2,0.1c5.5,1.1,11,3.8,16.6,8.1&#10;&#9;&#9;c3.6,2.6,6.7,5.9,9.1,9.6c1.7,2.9,2.7,7.2,0,9.9s-7.2,1.6-9.9-0.9l-0.2-0.2c-0.3-0.3-0.6-0.5-0.9-0.8c-0.2,0-0.4,0.1-0.6,0.2&#10;&#9;&#9;c-5.7,2.7-8.8,7.9-12,13.4l-0.4,0.6c-0.1,0.2-0.5,1-1,2C158.7,382.6,157.8,383.8,156.3,383.8z M116.7,378.2l38.8,1.9&#10;&#9;&#9;c1.1-1.6,3.6-6.6,4.7-8.6c0.6-1.1,1-1.9,1.1-2.2l0.4-0.6c3.4-5.7,6.9-11.6,13.6-14.8c0.7-0.4,1.5-0.6,2.3-0.6&#10;&#9;&#9;c1.3,0.1,2.5,0.8,3.3,1.8l0.2,0.2c1.4,1.3,3.7,2,4.9,0.9s0.5-3.6-0.6-5.4c-2.1-3.4-4.9-6.3-8.1-8.6c-5.2-4-10.2-6.5-15.1-7.5&#10;&#9;&#9;c-2.9-0.6-5.9-0.6-8.8-0.1c-1.3,0.3-2.5,0.7-3.7,1.3c-1.3,0.6-2.6,1.1-3.9,1.4c-6.2,1.4-10.2,2.5-14.9,6.2&#10;&#9;&#9;C125.1,348.1,119.1,368.5,116.7,378.2z"/>
	<path class="st2_coding-4-21" d="M131.1,361.3c0,0,8.6-8.7,10.4-8.2s11.8,11.1,20.2,5.9c5.5-3.3,10.2,1.1,9.2-6.5s-16.3-14.4-16.3-14.4"/>
	<path class="st0_coding-4-21" d="M131.1,363.1c-1,0-1.8-0.8-1.8-1.8c0-0.5,0.2-0.9,0.5-1.3c9.4-9.5,11.3-8.9,12.2-8.7c1,0.4,1.9,1,2.7,1.7&#10;&#9;&#9;c3.7,2.7,10.5,7.8,16.1,4.4c2-1.1,4.2-1.8,6.5-1.8c0.6,0,1.2-0.1,1.8-0.3c0,0,0.3-0.4,0-2.7c-0.7-5.5-11.2-11.2-15.2-13&#10;&#9;&#9;c-0.9-0.5-1.2-1.6-0.8-2.5c0.4-0.8,1.4-1.2,2.2-0.9c1.6,0.7,16.2,7.4,17.3,15.8c0.4,2.7,0.1,4.3-0.8,5.5c-1.1,1.4-2.8,1.5-4.4,1.6&#10;&#9;&#9;c-1.7,0-3.4,0.4-4.9,1.3c-7.7,4.7-16.1-1.6-20.1-4.6c-0.5-0.3-1-0.8-1.4-1c-1.5,0.7-5.6,4.4-8.8,7.6&#10;&#9;&#9;C132,362.9,131.5,363.1,131.1,363.1z"/>
	<path class="st0_coding-4-21" d="M161.7,360.8c-1,0-1.7-0.7-1.8-1.7c-0.6-10.2-15.4-15.3-15.6-15.3c-0.9-0.3-1.5-1.3-1.1-2.3&#10;&#9;&#9;c0.3-0.9,1.3-1.5,2.3-1.1l0,0c0.7,0.2,17.3,5.9,18.1,18.5c0.1,1-0.7,1.9-1.7,1.9H161.7z"/>
	<path class="st0_coding-4-21" d="M173.3,358.4c-1.2,0-2.5-0.3-3.6-0.9c-0.9-0.5-1.2-1.6-0.7-2.5s1.6-1.2,2.5-0.7c1.8,1,4,0.4,5-1.4&#10;&#9;&#9;c0.5-0.9,0.6-2,0.3-3c-0.6-1-1.3-2-2.1-2.8c-0.5-0.5-0.9-1-1.3-1.5c-2.9-3.8-8.5-6.4-8.6-6.5c-0.9-0.4-1.3-1.5-0.9-2.4&#10;&#9;&#9;c0.4-0.9,1.5-1.3,2.4-0.9c0,0,0.1,0,0.1,0c0.3,0.1,6.4,3,9.9,7.5c0.3,0.4,0.7,0.8,1.1,1.3c1.2,1.2,2.2,2.5,2.9,4.1&#10;&#9;&#9;c1.3,3.8-0.6,8-4.4,9.3C175,358.3,174.1,358.4,173.3,358.4L173.3,358.4z"/>
	<path class="st3_coding-4-21" d="M84.6,212.9c0,0-15.7-57.7-8.1-71s93.3-50,128-33.2s24.5,44.7,31.6,49.9s18.4,13.9,13.3,14.9s-14.3,2-13.3,3.6&#10;&#9;&#9;s15.9,12,6.2,21.1S114.7,230.8,84.6,212.9z"/>
	<path class="st0_coding-4-21" d="M122.7,221.3c-15.8,0-30.5-1.7-39.1-6.8c-0.4-0.2-0.7-0.6-0.8-1.1c-0.6-2.4-15.8-58.6-7.9-72.3&#10;&#9;&#9;c8.7-15.1,95.5-50.8,130.4-33.9c24.9,12.1,27.6,30.2,29.2,41c0.6,4.2,1.2,7.9,2.8,9.1c13.4,9.8,15.8,13.3,15.2,15.8&#10;&#9;&#9;c-0.3,1.3-1.4,2.2-2.7,2.3c-1.2,0.2-2.7,0.5-4.1,0.7c-1.9,0.3-4.9,0.8-6.6,1.3c2.9,2.7,8.4,8,8.5,14.1c-0.1,3.1-1.5,6.1-3.9,8.1&#10;&#9;&#9;c-5.4,5-38.5,13.2-72.2,17.9C158.3,219.3,139.9,221.3,122.7,221.3z M86.1,211.7c30.8,17,145.7-6.2,155-14.8&#10;&#9;&#9;c1.6-1.3,2.6-3.3,2.7-5.4c0-4.7-5.1-9.4-7.6-11.7c-0.6-0.5-1.1-1-1.6-1.6c-0.4-0.6-0.5-1.4-0.2-2.1c0.8-1.7,3.3-2.3,10.6-3.5&#10;&#9;&#9;c1.3-0.2,2.5-0.4,3.6-0.6c-0.7-1.2-3.4-4.3-13.6-11.8c-2.8-2.1-3.4-6.2-4.2-11.5c-1.6-10.8-4-27-27.2-38.3c-14.4-7-41-5-72.8,5.4&#10;&#9;&#9;c-27.5,9-49.5,21.2-52.8,27.1C72.2,153.1,81.7,195.3,86.1,211.7L86.1,211.7z"/>
	<path class="st2_coding-4-21" d="M138.2,276.3l21.7,4.4l0,0l-3.5,17.2c-0.5,2.6-3,4.2-5.6,3.7l0,0l-12.4-2.5c-2.6-0.5-4.2-3-3.7-5.6l0,0&#10;&#9;&#9;L138.2,276.3L138.2,276.3L138.2,276.3z"/>
	<path class="st0_coding-4-21" d="M148.9,302.8c-0.7,0-1.4-0.1-2.1-0.2l-4.9-1c-5.6-1.2-9.3-6.7-8.1-12.3l2.7-13.4c0.2-1,1.2-1.6,2.1-1.4&#10;&#9;&#9;l21.8,4.5c1,0.2,1.6,1.2,1.4,2.1c0,0,0,0,0,0l-2.7,13.4C158.1,299.4,153.8,302.8,148.9,302.8L148.9,302.8z M139.7,278.4l-2.4,11.6&#10;&#9;&#9;c-0.7,3.7,1.6,7.2,5.3,8l4.9,1l0,0c3.7,0.7,7.2-1.6,8-5.3l2.4-11.6L139.7,278.4z"/>
	<path class="st2_coding-4-21" d="M242.3,225.6c-0.8,10.3-11.5,23.2-23.4,22.3s-20.9-10-20.1-20.3s11.1-17.8,23-16.9S243.1,215.3,242.3,225.6z"/>
	<path class="st0_coding-4-21" d="M220.1,249.7c-0.5,0-0.9,0-1.4-0.1c-12.9-1-22.6-11-21.7-22.2c0.5-5.6,3.4-10.7,8-14&#10;&#9;&#9;c4.9-3.5,10.9-5.1,16.9-4.6c7,0.5,12.1,1.9,15.8,4.2c4.5,2.6,7,7.5,6.3,12.6c-0.4,5.6-3.4,11.7-8,16.5&#10;&#9;&#9;C231.3,247.1,225.7,249.7,220.1,249.7z M219.8,212.4c-4.5,0-8.9,1.4-12.6,4c-3.8,2.6-6.2,6.8-6.6,11.3c-0.7,9.3,7.5,17.5,18.4,18.3&#10;&#9;&#9;c6.6,0.5,11.9-3.8,14.4-6.4c4-4.1,6.7-9.6,7-14.2c0.5-3.7-1.3-7.4-4.6-9.3c-3.1-1.9-7.9-3.2-14.2-3.7&#10;&#9;&#9;C221,212.4,220.4,212.4,219.8,212.4z"/>
	<path class="st2_coding-4-21" d="M153.5,285c-35.9-2.8-62.7-34.2-59.8-70.1c1-12.7,2-22.4,12.5-31.1c6.4-5.3,13.8-10.7,15.3-18.8&#10;&#9;&#9;c2.4,3.8-1.6,9,0.2,13c1.2,2.6,4.2,3.5,7,4.1c21.8,4.2,45.7-5.3,58.7-23.4c3.3,6.3-3,14.4,0.1,20.8c1.5,3.1,4.9,4.8,8.3,5.1&#10;&#9;&#9;c3.4,0.1,6.8-0.5,9.9-1.9c5.2-2,10.1-4.6,14.7-7.7c3.8-2.4,5.4-4.8,6.8-0.6s-1,13-1.4,17.4l-2.6,33.2&#10;&#9;&#9;C220.7,260.9,189.4,287.7,153.5,285z"/>
	<path class="st0_coding-4-21" d="M158.6,287c-1.8,0-3.5-0.1-5.3-0.2c-36.8-2.9-64.4-35.2-61.5-72c0.9-11.8,1.8-22.9,13.1-32.4l1.7-1.4&#10;&#9;&#9;c5.8-4.7,11.7-9.6,13-16.3c0.1-0.7,0.7-1.3,1.4-1.4c0.7-0.1,1.5,0.2,1.9,0.8c1.6,2.6,1,5.4,0.5,8c-0.4,2-0.8,3.8-0.2,5.2&#10;&#9;&#9;s2.5,2.4,5.7,3.1c21,4,44.4-5.3,56.9-22.6c0.6-0.8,1.7-1,2.5-0.4c0.2,0.2,0.4,0.4,0.5,0.6c1.9,3.7,1.1,7.8,0.2,11.6&#10;&#9;&#9;c-0.7,3.4-1.4,6.6-0.1,9.2c1.1,2.2,3.8,3.8,6.9,4.1s6.4-0.8,9.2-1.8c5-2,9.9-4.6,14.4-7.6c0.7-0.4,1.3-0.9,1.9-1.3&#10;&#9;&#9;c1.7-1.2,3.2-2.3,4.9-1.8c1.6,0.5,2.3,2,2.7,3.3c1.2,3.4,0.3,8.6-0.6,13.3c-0.3,1.8-0.6,3.6-0.7,4.8l-2.6,33.3&#10;&#9;&#9;C222.6,260,193.6,286.9,158.6,287z M119.6,173.7c-2.9,3.9-6.8,7.2-10.5,10.2l-1.7,1.4c-9.5,7.9-10.8,16.5-11.8,29.8&#10;&#9;&#9;c-2.7,34.9,23.3,65.3,58.2,68.1l0,0c34.9,2.7,65.3-23.4,68-58.3c0,0,0,0,0,0l2.6-33.3c0.1-1.4,0.4-3.2,0.8-5.2&#10;&#9;&#9;c0.7-4,1.6-9,0.7-11.5c-0.1-0.3-0.2-0.7-0.4-1c-0.6,0.3-1.1,0.7-1.7,1.1c-0.6,0.4-1.3,0.9-2,1.4c-4.7,3.1-9.8,5.8-15.1,7.9&#10;&#9;&#9;c-3.1,1.2-6.8,2.3-10.8,2c-4.4-0.4-8.1-2.7-9.8-6.1c-1.8-3.7-1-7.7-0.2-11.5c0.5-2,0.8-4,0.9-6c-14.2,17-36.4,25-58.2,21.1&#10;&#9;&#9;c-2.8-0.5-6.7-1.6-8.3-5.1C119.5,177.1,119.3,175.4,119.6,173.7z"/>
	<path class="st0_coding-4-21" d="M147.6,202.8h-0.2l-28.7-1.9c-2-0.1-3.5-1.9-3.4-3.9c0.1-2,1.9-3.5,3.9-3.4l28.7,1.9c2,0.1,3.6,1.7,3.5,3.7&#10;&#9;&#9;S149.6,202.8,147.6,202.8L147.6,202.8z"/>
	<path class="st0_coding-4-21" d="M214.4,207.8h-0.3l-28.6-2.4c-2-0.2-3.5-1.9-3.3-3.9c0.2-2,1.9-3.5,3.9-3.3c0,0,0,0,0,0l28.6,2.4&#10;&#9;&#9;c2,0.2,3.4,2,3.2,4C217.8,206.4,216.2,207.8,214.4,207.8L214.4,207.8z"/>
	<path class="st0_coding-4-21" d="M167.4,243c-2.6,0-5.3-0.4-7.9-1c-1-0.3-1.5-1.3-1.2-2.3c0.3-0.9,1.2-1.4,2.1-1.2c0.1,0,5.2,1.3,9,0.8&#10;&#9;&#9;c0.6-1.6-1.2-8.3-3.9-14.7c-0.4-0.9,0-2,1-2.4s2,0,2.4,1c1.4,3.3,5.8,14.3,3.7,18c-0.5,0.9-1.3,1.5-2.3,1.6&#10;&#9;&#9;C169.3,242.9,168.3,243,167.4,243z"/>
	<path class="st4_coding-4-21" d="M109.8,208.9c-1.2,15.3,9.4,28.6,23.7,29.7s26.8-10.4,28-25.7L109.8,208.9z"/>
	<path class="st0_coding-4-21" d="M135.4,240.5c-0.7,0-1.4,0-2-0.1c-15.3-1.2-26.6-15.4-25.4-31.7c0-0.5,0.3-0.9,0.6-1.2&#10;&#9;&#9;c0.4-0.3,0.8-0.5,1.3-0.4l51.7,4c1,0.1,1.7,0.9,1.7,1.9c0,0,0,0,0,0C162.2,228.6,149.9,240.5,135.4,240.5z M111.6,210.8&#10;&#9;&#9;c-0.2,13.5,9.4,25,22.1,26s24-8.9,25.9-22.2L111.6,210.8z"/>
	<path class="st4_coding-4-21" d="M171.8,213.5c-1.2,15.3,9.4,28.6,23.7,29.7s26.8-10.4,28-25.7L171.8,213.5z"/>
	<path class="st0_coding-4-21" d="M197.4,245.1c-0.7,0-1.4,0-2-0.1c-15.3-1.2-26.6-15.4-25.4-31.7c0.1-1,0.9-1.7,1.9-1.7c0,0,0,0,0,0l51.7,4&#10;&#9;&#9;c1,0.1,1.7,1,1.7,2c0,0,0,0,0,0C224.1,233.2,211.8,245.1,197.4,245.1z M173.5,215.4c-0.2,13.5,9.4,25,22.1,26s24-8.9,25.9-22.2&#10;&#9;&#9;L173.5,215.4z"/>
	<path class="st0_coding-4-21" d="M108,210.6c-0.4,0-0.7-0.1-1-0.3l-11.6-7.8c-0.9-0.4-1.3-1.5-0.8-2.4c0.4-0.9,1.5-1.3,2.4-0.8&#10;&#9;&#9;c0.2,0.1,0.3,0.2,0.4,0.3l11.6,7.8c0.8,0.6,1,1.7,0.5,2.5C109.1,210.3,108.6,210.6,108,210.6L108,210.6z"/>
	<path class="st0_coding-4-21" d="M171.8,215.4h-0.1l-10.2-0.7c-1-0.1-1.7-1-1.6-2c0.1-1,0.9-1.7,1.9-1.6l10.2,0.7c1,0,1.8,0.9,1.8,1.9&#10;&#9;&#9;S172.8,215.5,171.8,215.4L171.8,215.4z"/>
	<path class="st2_coding-4-21" d="M102.2,240.4c-11.9-0.9-27-11.2-27-31.7c0-10.3,18.2-17.2,24.2-5.8"/>
	<path class="st0_coding-4-21" d="M102.2,242.3h-0.1c-7.2-0.7-14-3.9-19.1-9c-4.4-4.4-9.6-12.1-9.6-24.5c0-6.6,6-11.5,12-13&#10;&#9;&#9;c6.7-1.7,12.7,0.8,15.7,6.4c0.5,0.9,0.1,2-0.8,2.4c-0.9,0.5-2,0.1-2.4-0.8c-3.2-6.1-9.7-5-11.6-4.6c-4.5,1.1-9.2,4.8-9.2,9.5&#10;&#9;&#9;c0,10.8,6.9,28.5,25.3,29.9c1,0,1.8,0.9,1.7,1.9C104.1,241.6,103.2,242.3,102.2,242.3L102.2,242.3L102.2,242.3z"/>
	<path class="st0_coding-4-21" d="M167.5,262.1c-9.3,0-19.6-2.6-31-7.8c-0.6-0.3-1-0.5-1.2-0.6c-1-0.2-1.6-1.2-1.3-2.2c0.2-0.8,0.9-1.4,1.7-1.4&#10;&#9;&#9;c0.5,0,0.8,0.1,2.4,0.9c15.6,7.1,29.2,9.2,40.3,6c1-0.3,2,0.3,2.2,1.2c0.3,1-0.3,2-1.2,2.2C175.5,261.6,171.5,262.2,167.5,262.1z"/>
	<path class="st0_coding-4-21" d="M197.6,342.4c-0.9,0-1.7-0.7-1.8-1.6l-3.3-33.3c-0.3-1,0.3-2,1.3-2.2s2,0.3,2.2,1.3c0,0.2,0.1,0.3,0.1,0.5&#10;&#9;&#9;l3.4,33.4c0.1,1-0.6,1.9-1.6,2c0,0,0,0,0,0L197.6,342.4z"/>
</g>
<g id="table_coding-4-21">
	<path class="st4_coding-4-21" d="M44.7,377.3h410.6c5,0,9.1,4.1,9.1,9.1v0c0,5-4.1,9.1-9.1,9.1H44.7c-5,0-9.1-4.1-9.1-9.1v0&#10;&#9;&#9;C35.6,381.4,39.7,377.3,44.7,377.3z"/>
	<path class="st0_coding-4-21" d="M455.3,397.3H44.7c-6-0.2-10.7-5.2-10.6-11.2c0.2-5.8,4.8-10.4,10.6-10.6h410.6c6,0.2,10.7,5.2,10.6,11.2&#10;&#9;&#9;C465.7,392.5,461.1,397.1,455.3,397.3z M44.7,379.1c-4,0-7.3,3.3-7.3,7.3c0,4,3.3,7.3,7.3,7.3h410.6c4,0,7.3-3.3,7.3-7.3&#10;&#9;&#9;c0-4-3.3-7.3-7.3-7.3l0,0H44.7z"/>
</g>
<g id="device_coding-4-21">
	<path class="st5_coding-4-21" d="M160,368.3h71l0,0v9l0,0h-71c-1.4,0-2.5-1.1-2.5-2.5l0,0v-4.1C157.5,369.4,158.6,368.3,160,368.3L160,368.3&#10;&#9;&#9;L160,368.3z"/>
	<path class="st0_coding-4-21" d="M231,379.1h-69c-3.5,0-6.3-2.8-6.3-6.3s2.8-6.3,6.3-6.3h69c1,0,1.8,0.8,1.8,1.8v9&#10;&#9;&#9;C232.8,378.3,232,379.1,231,379.1C231,379.1,231,379.1,231,379.1z M162,370.1c-1.5,0.1-2.6,1.4-2.5,2.9c0.1,1.4,1.2,2.4,2.5,2.5&#10;&#9;&#9;h67.2v-5.4H162z"/>
	<rect x="231" y="368.3" class="st5_coding-4-21" width="148.2" height="9"/>
	<path class="st0_coding-4-21" d="M379.2,379.1H231c-1,0-1.8-0.8-1.8-1.8c0,0,0,0,0,0v-9c0-1,0.8-1.8,1.8-1.8c0,0,0,0,0,0h148.2&#10;&#9;&#9;c1,0,1.8,0.8,1.8,1.8v9C381,378.3,380.2,379.1,379.2,379.1C379.2,379.1,379.2,379.1,379.2,379.1z M232.8,375.5h144.6v-5.4H232.8&#10;&#9;&#9;V375.5z"/>
	<polygon class="st5_coding-4-21" points="258.2,270.4 406.4,270.4 379.2,368.3 231,368.3 &#9;"/>
	<path class="st0_coding-4-21" d="M379.2,370.1H231c-1,0-1.8-0.8-1.8-1.8c0-0.2,0-0.3,0.1-0.5l27.2-97.9c0.2-0.8,0.9-1.3,1.7-1.3h148.2&#10;&#9;&#9;c1,0,1.8,0.8,1.8,1.8c0,0.2,0,0.3-0.1,0.5l-27.2,97.9C380.7,369.6,380,370.1,379.2,370.1z M233.4,366.5h144.4l26.2-94.3H259.6&#10;&#9;&#9;L233.4,366.5z"/>
</g>
<g id="speech-bubble_coding-4-21">
	<path class="st4_coding-4-21" d="M402,111.8H277.6c-7.7,0-14,6.3-14,14v81.1c0,7.7,6.3,14,14,14h3v29.8l14.9-29.8H402c7.7,0,14-6.3,14-14v-81.1&#10;&#9;&#9;C416,118.1,409.7,111.8,402,111.8z"/>
	<path class="st0_coding-4-21" d="M280.6,252.4c-0.1,0-0.3,0-0.4,0c-0.8-0.2-1.4-0.9-1.4-1.8v-28h-1.2c-8.7,0-15.8-7.1-15.8-15.8v-81.1&#10;&#9;&#9;c0-8.7,7.1-15.8,15.8-15.8h0H402c8.7,0,15.8,7.1,15.8,15.8v81.1c0,8.7-7.1,15.8-15.8,15.8h0H296.6l-14.4,28.8&#10;&#9;&#9;C281.9,252.1,281.3,252.5,280.6,252.4z M277.6,113.7c-6.7,0-12.1,5.5-12.1,12.2v81.1c0,6.7,5.4,12.1,12.1,12.1h3&#10;&#9;&#9;c1,0,1.8,0.8,1.8,1.8v0V243l11.4-23c0.3-0.6,0.9-1,1.6-1H402c6.7,0,12.1-5.4,12.2-12.1v-81c0-6.7-5.4-12.1-12.2-12.2H277.6z"/>
	<path class="st1_coding-4-21 targetColor" d="M314.7,131.1h-29.6c-1-0.1-1.8-0.9-1.7-1.9c0.1-0.9,0.8-1.6,1.7-1.7h29.6c1,0.1,1.8,0.9,1.7,1.9&#10;&#9;&#9;C316.3,130.3,315.6,131,314.7,131.1z" style="fill: rgb(104, 225, 253);"/>
	<path class="st6_coding-4-21" d="M307,140.7h-12.7c-1-0.1-1.8-0.9-1.7-1.9c0.1-0.9,0.8-1.6,1.7-1.7H307c1,0.1,1.8,0.9,1.7,1.9&#10;&#9;&#9;C308.6,139.9,307.9,140.6,307,140.7z"/>
	<path class="st6_coding-4-21" d="M339.2,140.7h-23c-1,0.1-1.9-0.7-1.9-1.7c-0.1-1,0.7-1.9,1.7-1.9c0.1,0,0.2,0,0.3,0h23c1,0.1,1.8,0.9,1.7,1.9&#10;&#9;&#9;C340.8,139.9,340.1,140.6,339.2,140.7z"/>
	<path class="st1_coding-4-21 targetColor" d="M388.6,140.7h-41.7c-1-0.1-1.8-0.9-1.7-1.9c0.1-0.9,0.8-1.6,1.7-1.7h41.7c1-0.1,1.9,0.7,1.9,1.7&#10;&#9;&#9;c0.1,1-0.7,1.9-1.7,1.9C388.8,140.7,388.7,140.7,388.6,140.7z" style="fill: rgb(104, 225, 253);"/>
	<path class="st6_coding-4-21" d="M300.6,150.9h-8.2c-1-0.1-1.8-0.9-1.7-1.9c0.1-0.9,0.8-1.6,1.7-1.7h8.2c1,0.1,1.8,0.9,1.7,1.9&#10;&#9;&#9;C302.2,150.1,301.5,150.8,300.6,150.9z"/>
	<path class="st1_coding-4-21 targetColor" d="M329.9,150.9H307c-1-0.1-1.8-0.9-1.7-1.9c0.1-0.9,0.8-1.6,1.7-1.7h23c1-0.1,1.9,0.7,1.9,1.7&#10;&#9;&#9;c0.1,1-0.7,1.9-1.7,1.9C330.2,150.9,330.1,150.9,329.9,150.9L329.9,150.9z" style="fill: rgb(104, 225, 253);"/>
	<path class="st6_coding-4-21" d="M316.2,160.9h-31.1c-1,0-1.8-0.8-1.8-1.8c0-1,0.8-1.8,1.8-1.8c0,0,0,0,0,0h31.1c1,0,1.8,0.8,1.8,1.8&#10;&#9;&#9;C318,160.1,317.2,160.9,316.2,160.9C316.2,160.9,316.2,160.9,316.2,160.9z"/>
	<path class="st1_coding-4-21 targetColor" d="M336.5,160.9h-12.8c-1,0-1.8-0.8-1.8-1.8c0-1,0.8-1.8,1.8-1.8h12.8c1,0,1.8,0.8,1.8,1.8&#10;&#9;&#9;C338.4,160.1,337.5,160.9,336.5,160.9C336.5,160.9,336.5,160.9,336.5,160.9z" style="fill: rgb(104, 225, 253);"/>
	<path class="st1_coding-4-21 targetColor" d="M299.9,170.5h-6.6c-1-0.1-1.8-0.9-1.7-1.9c0.1-0.9,0.8-1.6,1.7-1.7h6.6c1,0.1,1.8,0.9,1.7,1.9&#10;&#9;&#9;C301.5,169.7,300.8,170.4,299.9,170.5z" style="fill: rgb(104, 225, 253);"/>
	<path class="st6_coding-4-21" d="M338.1,170.5H305c-1-0.1-1.8-0.9-1.7-1.9c0.1-0.9,0.8-1.6,1.7-1.7h33.1c1,0.1,1.8,0.9,1.7,1.9&#10;&#9;&#9;C339.7,169.7,339,170.4,338.1,170.5L338.1,170.5z"/>
	<path class="st1_coding-4-21 targetColor" d="M375.5,170.5h-31.8c-1-0.1-1.8-0.9-1.7-1.9c0.1-0.9,0.8-1.6,1.7-1.7h31.8c1,0.1,1.8,0.9,1.7,1.9&#10;&#9;&#9;C377.1,169.7,376.4,170.4,375.5,170.5z" style="fill: rgb(104, 225, 253);"/>
	<path class="st6_coding-4-21" d="M394.5,170.5H382c-1-0.1-1.8-0.9-1.7-1.9c0.1-0.9,0.8-1.6,1.7-1.7h12.5c1-0.1,1.9,0.7,1.9,1.7&#10;&#9;&#9;c0.1,1-0.7,1.9-1.7,1.9C394.7,170.5,394.6,170.5,394.5,170.5z"/>
	<path class="st1_coding-4-21 targetColor" d="M311.1,180.7h-26c-1-0.1-1.8-0.9-1.7-1.9c0.1-0.9,0.8-1.6,1.7-1.7h26c1,0.1,1.8,0.9,1.7,1.9&#10;&#9;&#9;C312.7,179.9,312,180.6,311.1,180.7z" style="fill: rgb(104, 225, 253);"/>
	<path class="st1_coding-4-21 targetColor" d="M329.9,180.7h-11.5c-1-0.1-1.8-0.9-1.7-1.9c0.1-0.9,0.8-1.6,1.7-1.7h11.5c1-0.1,1.9,0.7,1.9,1.7&#10;&#9;&#9;c0.1,1-0.7,1.9-1.7,1.9C330.1,180.7,330,180.7,329.9,180.7z" style="fill: rgb(104, 225, 253);"/>
	<path class="st6_coding-4-21" d="M351,180.7h-15.6c-1-0.1-1.8-0.9-1.7-1.9c0.1-0.9,0.8-1.6,1.7-1.7H351c1,0.1,1.8,0.9,1.7,1.9&#10;&#9;&#9;C352.6,179.9,351.9,180.6,351,180.7z"/>
	<path class="st1_coding-4-21 targetColor" d="M314,190.6h-21.5c-1,0-1.8-0.8-1.8-1.8c0-1,0.8-1.8,1.8-1.8c0,0,0,0,0,0H314c1,0,1.8,0.8,1.8,1.8&#10;&#9;&#9;C315.8,189.8,315,190.6,314,190.6C314,190.6,314,190.6,314,190.6z" style="fill: rgb(104, 225, 253);"/>
	<path class="st6_coding-4-21" d="M299.9,199.8h-14.8c-1-0.1-1.8-0.9-1.7-1.9c0.1-0.9,0.8-1.6,1.7-1.7h14.8c1,0.1,1.8,0.9,1.7,1.9&#10;&#9;&#9;C301.5,199,300.8,199.8,299.9,199.8L299.9,199.8z"/>
	<path class="st1_coding-4-21 targetColor" d="M321.5,199.1h-15.2c-1-0.1-1.8-0.9-1.7-1.9c0.1-0.9,0.8-1.6,1.7-1.7h15.2c1-0.1,1.9,0.7,1.9,1.7&#10;&#9;&#9;c0.1,1-0.7,1.9-1.7,1.9C321.7,199.1,321.6,199.1,321.5,199.1L321.5,199.1z" style="fill: rgb(104, 225, 253);"/>
	<path class="st1_coding-4-21 targetColor" d="M321.5,209.5h-28.3c-1-0.1-1.8-0.9-1.7-1.9c0.1-0.9,0.8-1.6,1.7-1.7h28.3c1-0.1,1.9,0.7,1.9,1.7&#10;&#9;&#9;c0.1,1-0.7,1.9-1.7,1.9C321.7,209.5,321.6,209.5,321.5,209.5z" style="fill: rgb(104, 225, 253);"/>
	<path class="st1_coding-4-21 targetColor" d="M354.6,209.5h-26.9c-1-0.1-1.8-0.9-1.7-1.9c0.1-0.9,0.8-1.6,1.7-1.7h26.9c1,0.1,1.8,0.9,1.7,1.9&#10;&#9;&#9;C356.2,208.7,355.5,209.4,354.6,209.5z" style="fill: rgb(104, 225, 253);"/>
	<path class="st6_coding-4-21" d="M374.6,209.5h-13.9c-1-0.1-1.8-0.9-1.7-1.9c0.1-0.9,0.8-1.6,1.7-1.7h13.9c1-0.1,1.9,0.7,1.9,1.7&#10;&#9;&#9;c0.1,1-0.7,1.9-1.7,1.9C374.8,209.5,374.7,209.5,374.6,209.5z"/>
</g>
<g id="plant_coding-4-21">
	<path class="st7_coding-4-21" d="M417.3,356.7c0,0-10.4-21.1-8.9-35.4c0,0,8.3,3.8,12.3,14.9c6.1,17,4.7,20.5,4.7,20.5L417.3,356.7z"/>
	<path class="st0_coding-4-21" d="M425.5,358.6L425.5,358.6h-8.1c-0.7,0-1.3-0.4-1.6-1c-0.4-0.9-10.6-21.7-9.1-36.3c0.1-0.6,0.4-1.1,0.9-1.4&#10;&#9;&#9;c0.5-0.3,1.1-0.3,1.6-0.1c0.4,0.2,9.1,4.2,13.3,15.9c5.9,16.4,5.1,20.8,4.7,21.8C426.9,358.1,426.2,358.6,425.5,358.6z&#10;&#9;&#9; M418.5,354.9h5.3c-0.1-2-0.8-7.1-4.8-18.1c-1.7-4.9-4.8-9.2-9-12.3C410.2,336.1,416.6,351,418.5,354.9L418.5,354.9z"/>
	<path class="st7_coding-4-21" d="M422.2,355.7c0,0-7.8-30.1,3.4-50.2c0,0,6.4,7.4,8,25.2c0.8,8.5-0.8,17-4.6,24.6L422.2,355.7z"/>
	<path class="st0_coding-4-21" d="M422.2,357.5c-0.8,0-1.5-0.6-1.8-1.4c-0.3-1.2-7.8-31,3.6-51.5c0.5-0.9,1.6-1.2,2.5-0.7&#10;&#9;&#9;c0.2,0.1,0.4,0.2,0.5,0.4c0.3,0.3,6.8,8,8.4,26.2c0.9,8.8-0.8,17.8-4.9,25.7c-0.3,0.5-0.8,0.8-1.5,0.9l-6.7,0.5L422.2,357.5z&#10;&#9;&#9; M425.9,309.1c-7.5,16.6-3.5,38.9-2.2,44.7l4.2-0.3c3.3-7.1,4.7-14.9,4-22.7C430.8,319.4,427.8,312.5,425.9,309.1z"/>
	<path class="st7_coding-4-21" d="M425.6,354.8c0,0,2.4-20.1,18.6-33.2c0,0,4.8,15-8.6,35L425.6,354.8z"/>
	<path class="st0_coding-4-21" d="M435.6,358.4h-0.3l-10-1.8c-0.9-0.2-1.6-1-1.5-2c0.1-0.9,2.7-21,19.3-34.4c0.8-0.6,1.9-0.5,2.6,0.2&#10;&#9;&#9;c0.1,0.2,0.3,0.4,0.3,0.6c0.2,0.6,4.9,16-8.8,36.5C436.8,358,436.2,358.4,435.6,358.4z M427.7,353.3l7.1,1.2&#10;&#9;&#9;c8.7-13.5,8.9-24.6,8.3-29.6C432.1,335.2,428.6,348.6,427.7,353.3L427.7,353.3z"/>
	<polygon class="st8_coding-4-21" points="436.7,377.3 416.3,377.3 413.3,352.5 439.7,352.5 &#9;"/>
	<path class="st0_coding-4-21" d="M436.7,379.1h-20.4c-0.9,0-1.7-0.7-1.8-1.6l-3-24.9c-0.1-0.5,0.1-1,0.4-1.4c0.3-0.4,0.8-0.6,1.4-0.6h26.5&#10;&#9;&#9;c0.5,0,1,0.2,1.4,0.6c0.3,0.4,0.5,0.9,0.4,1.4l-3,24.9C438.4,378.5,437.7,379.2,436.7,379.1z M417.9,375.5h17.2l2.6-21.2h-22.4&#10;&#9;&#9;L417.9,375.5z"/>
</g>
</svg>